<svg height="48" viewBox="0 0 161 48" width="161" xmlns="http://www.w3.org/2000/svg"><g fill="none"><g><path d="m150.859108-.000108h-140.7124905c-.39023491 0-.77578739 0-1.16499001.002508-.32579876.0024-.64900092.009372-.97792837.01524-.71458243.00948216-1.42748441.08037151-2.13251066.212052-.70403598.13454715-1.38601751.38820689-2.02287882.7524-.6360824.36727405-1.21728908.84450904-1.72253524 1.414392-.50789862.56828039-.93127133 1.22513565-1.25383837 1.945308-.32345731.71873894-.54774365 1.48893395-.66511261 2.283984-.11848482.79404589-.18224258 1.59724865-.19070109 2.4024-.00987559.36792-.01091849.737064-.01612233 1.105032v27.737112c.00520384.3726.00624674.73356.01612233 1.10628.0084611.8051114.07221886 1.6082741.19070109 2.40228.11704487.7955148.34134447 1.566152.66511261 2.28516.32242057.7178435.74585283 1.3720394 1.25383837 1.93716.50333043.5724169 1.08491278 1.0499765 1.72253524 1.41444.63685647.3651679 1.31876448.6203374 2.02287882.75696.70514611.1306257 1.41797476.2015438 2.13251066.21216.32892745.00816.65212961.01284.97792837.01284.38919198.0024.77477638.0024 1.16499001.0024h140.7124905c.382466 0 .771105 0 1.153571-.0024.324256 0 .656812-.00468.981068-.01284.713185-.0100516 1.424672-.0809742 2.12836-.21216.706386-.1375844 1.390739-.3926864 2.030669-.75696.637047-.3646745 1.218093-.8422211 1.720992-1.41444.506675-.5673338.931011-1.2210513 1.257435-1.93716.321339-.7195311.543503-1.4901066.658834-2.28516.118672-.7941149.184692-1.5970989.197512-2.40228.00415-.37272.00415-.73368.00415-1.10628.008301-.43596.008301-.86952.008301-1.31256v-25.114404c0-.439452 0-.875388-.008301-1.310148 0-.367968 0-.737112-.00415-1.10508-.012817-.80522107-.078837-1.6082452-.197512-2.4024-.115652-.79459008-.337803-1.56472407-.658834-2.283984-.656891-1.44348545-1.69852-2.61847203-2.978395-3.359712-.639932-.36330314-1.324358-.61689551-2.030669-.7524-.703567-.13226066-1.415128-.20317468-2.12836-.212112-.324256-.005856-.656812-.012888-.981068-.015228-.382466-.0024-.771105-.0024-1.153571-.0024z" fill="#a6a6a6"/><path d="m9.0982048 46.95c-.32394518 0-.64006498-.00468-.96146904-.01284-.66581456-.0097911-1.33007294-.07521-1.98732736-.19572-.61285659-.1191262-1.20654989-.3407226-1.76149712-.65748-.54985867-.3141328-1.05137398-.7260326-1.48533353-1.21992-.44024103-.4880697-.8067618-1.0541472-1.08503774-1.6758-.28134231-.625693-.47604793-1.2963605-.57733437-1.98864-.10938056-.7438621-.16855997-1.4960241-.17702794-2.25-.00674088-.25308-.0155657-1.09572-.0155657-1.09572v-27.720672s.00939896-.829692.01561886-1.073448c.00810802-.75278154.0669433-1.50377628.17599661-2.246484.1014734-.6941759.29632975-1.36677736.57782345-1.99452.27725321-.62122338.64173913-1.18772365 1.07932819-1.67754.43709722-.4944703.94021678-.90849106 1.49101119-1.226964.5536718-.31573968 1.14624309-.53577295 1.75786087-.652728.65941295-.12172063 1.32597738-.1875287 1.99410013-.196872l.95937449-.014652h142.89257321l.970836.01524c.662046.00887899 1.322555.07409996 1.975908.195108.61781.11842208 1.216557.33999064 1.776553.65742 1.103441.64181526 2.001289 1.65722754 2.567702 2.903916.277001.62340908.468852 1.29052411.569042 1.978704.110351.74880166.172112 1.505698.184789 2.264652.003083.33984.003083.70488.003083 1.068168.0084.45.0084.878316.0084 1.310148v25.114404c0 .43596 0 .86136-.0084 1.29024 0 .39024 0 .74772-.004146 1.11564-.012403.7454108-.073134 1.4887971-.181706 2.2242-.099211.6972734-.292856 1.3731758-.574145 2.004-.280243.6149054-.644659 1.1760794-1.079817 1.66284-.43435.4965416-.936751.9108512-1.487886 1.227-.558444.3191924-1.15631.5416083-1.773469.65976-.657204.1211532-1.321526.1865762-1.987391.19572-.31142.00816-.637513.01284-.954143.01284l-1.152542.0024z" fill="#000"/></g><g fill="#fff"><g transform="translate(6.8 9.6)"><path d="m17.922656 14.760816c.0262284-2.0357651 1.0934915-3.9161927 2.827872-4.982472-1.0991129-1.56972868-2.8740575-2.52928998-4.789392-2.589216-2.015088-.211512-3.968628 1.205796-4.99548 1.205796-1.046724 0-2.627724-1.184796-4.3302-1.149768-2.24001449.0723701-4.27769139 1.31507458-5.367504 3.273444-2.3208 4.018104-.589692 9.923364 1.63344 13.171296 1.11228 1.59042 2.412216 3.36696 4.113156 3.30396 1.664472-.069036 2.28612-1.061376 4.29528-1.061376 1.990512 0 2.573748 1.061376 4.3092 1.02132 1.786056-.028992 2.911356-1.597488 3.984612-3.202968.7991714-1.1332324 1.4141324-2.3857009 1.822104-3.711012-2.1212921-.8972025-3.5006121-2.9757788-3.503088-5.279004z"/><path d="m14.6447 5.053068c.9738319-1.16904971 1.4536019-2.67166506 1.337424-4.188744-1.4877986.15626458-2.8621078.86733561-3.849096 1.991532-.9746055 1.10917083-1.4683384 2.56026321-1.372452 4.033668 1.5077482.01552412 2.9393233-.66134014 3.884124-1.836456z"/></g><g transform="translate(37 28.6)"><path d="m.69612.779492c.00764845-.3654034.30867299-.65619289.67412234-.65120171.36544936.00499119.65842009.30389327.65608643.66936926-.00233366.36547598-.29909747.66061246-.66458077.66094392-.17914677.00084234-.35100532-.07087566-.47640686-.19881603-.12540155-.12794037-.193661-.30120168-.18922114-.48029544zm.108984 8.50488v-7.16016h1.112112v7.16016z"/><path d="m3.73596 3.880856h1.026564v.857808h.079692c.2774127-.63168447.92485082-1.017984 1.6125-.962112.53258016-.04004188 1.05447104.16426788 1.41831693.55524248.3638459.3909746.53016275.92618603.45199107 1.45451752v3.498h-1.066404v-3.230796c0-.868356-.37734-1.2996-1.166016-1.2996-.36114862-.01686811-.71165727.12480778-.95964929.38789106-.24799203.26308328-.36873916.62134088-.33059071.98086494v3.161724h-1.066404z"/><path d="m9.706668 6.579692c0-1.70742.87774-2.789064 2.242968-2.789064.6893123-.03151595 1.3348497.33780067 1.657032.948h.079692v-2.967144h1.06644v7.512888h-1.02192v-.854292h-.084372c-.3462612.60546124-.9998557.96881942-1.696872.943356-1.374612 0-2.242968-1.081644-2.242968-2.793744zm1.1016 0c0 1.146096.54024 1.836324 1.443756 1.836324.8988 0 1.454292-.6996 1.454292-1.831644 0-1.126176-.561324-1.83516-1.454292-1.83516-.897708 0-1.443792.693756-1.443792 1.83048z"/><path d="m16.362912 2.28242c-.016564-.28255961.1409097-.54663745.3973757-.66638505.256466-.11974761.5600323-.07093586.7660319.1231736.2059995.19410945.2727515.49424151.1684446.75736577s-.3585676.43600151-.6416122.43624568c-.1788047.0091161-.3535819-.05515342-.4838847-.17793528-.1303029-.12278186-.2048376-.29343426-.2063553-.47246472zm.158208 1.5984h1.062888v5.403516h-1.062888z"/><path d="m19.304316 3.880856h1.026564v.828516h.079692c.2356814-.59019452.824894-.96123047 1.458984-.918744.1597137-.00185455.3191805.01307133.475776.044532v1.0524c-.1957513-.04152618-.395205-.06312037-.595308-.064452-.3556653-.03193973-.7082802.08780175-.9709496.32971646-.2626693.24191471-.410965.58350464-.4083424.94059154v3.191016h-1.066416z"/><path d="m23.464476 2.28242c-.016564-.28255961.1409097-.54663745.3973757-.66638505.256466-.11974761.5600323-.07093586.7660319.1231736.2059995.19410945.2727515.49424151.1684446.75736577s-.3585676.43600151-.6416122.43624568c-.1788047.0091161-.3535819-.05515342-.4838847-.17793528-.1303029-.12278186-.2048376-.29343426-.2063553-.47246472zm.158208 1.5984h1.062888v5.403516h-1.062888z"/><path d="m26.40588 3.880856h1.026564v.857808h.079692c.2774127-.63168447.9248508-1.017984 1.6125-.962112.5325802-.04004188 1.054471.16426788 1.4183169.55524248s.5301628.92618603.4519911 1.45451752v3.498h-1.066404v-3.230796c0-.868356-.37734-1.2996-1.166016-1.2996-.3611486-.01686811-.7116573.12480778-.9596493.38789106s-.3687392.62134088-.3305907.98086494v3.161724h-1.066404z"/></g><g transform="translate(36 10)"><path d="m8.9690868 10.235214h-5.112072l-1.2276576 3.624966h-2.1652704l4.842072-13.41144h2.24964l4.842072 13.41144h-2.2021848zm-4.5826128-1.6727364h4.05216l-1.9976328-5.8829976h-.0559008z"/><path d="m22.8551004 8.9717004c0 3.0385584-1.6263288 4.9907772-4.0805856 4.9907772-1.2685839.0663602-2.4635206-.5980925-3.0765204-1.71072h-.04644v4.8431304h-2.007072v-13.0127148h1.9427364v1.6263288h.0369144c.640233-1.10565225 1.8364582-1.76981886 3.1134348-1.7286372 2.4817104 0 4.1175324 1.961712 4.1175324 4.9918356zm-2.0629404 0c0-1.97964-1.023084-3.2811372-2.5840188-3.2811372-1.5335136 0-2.565 1.3289076-2.565 3.2811372 0 1.9701576 1.0314864 3.289572 2.565 3.289572 1.5609456 0 2.5840188-1.2919932 2.5840188-3.289572z"/><path d="m33.6165984 8.9717004c0 3.0385584-1.6257996 4.9907772-4.0800564 4.9907772-1.2685868.0663729-2.4635329-.5980719-3.076542-1.7106984h-.04644v4.8431304h-2.007072v-13.0127364h1.9427364v1.6263288h.0369144c.640233-1.10565225 1.8364582-1.76981886 3.1134348-1.7286372 2.481732 0 4.1170248 1.961712 4.1170248 4.9918356zm-2.0624328 0c0-1.97964-1.0230624-3.2811372-2.5839972-3.2811372-1.5335136 0-2.565 1.3289076-2.565 3.2811372 0 1.9701576 1.0314864 3.289572 2.565 3.289572 1.5609456 0 2.5839972-1.2919932 2.5839972-3.289572z"/><path d="m40.7294136 10.1234232c.148716 1.329966 1.44072 2.2032 3.20625 2.2032 1.6917228 0 2.9088288-.8732772 2.9088288-2.072466 0-1.0409796-.7340652-1.66428-2.4721848-2.0914416l-1.7381196-.418716c-2.4626916-.5948424-3.6059796-1.7465652-3.6059796-3.6154728 0-2.3139864 2.0165652-3.9034008 4.880034-3.9034008 2.83392 0 4.776678 1.5894144 4.842072 3.9034008h-2.02608c-.121284-1.3384008-1.2276576-2.146284-2.8444932-2.146284s-2.7231984.8173872-2.7231984 2.007072c0 .9481644.706644 1.5060924 2.4352704 1.9332l1.4776128.3628152c2.751678.6507432 3.894966 1.75608 3.894966 3.7177704 0 2.5090992-1.9986372 4.0805856-5.177466 4.0805856-2.9742228 0-4.9823424-1.534572-5.112072-3.96036z"/><path d="m53.2960128 1.7681868v2.3139864h1.8594144v1.5894144h-1.8594144v5.3905068c0 .8374212.3723084 1.2276576 1.1896848 1.2276576.2207428-.0038492.4411283-.0193508.6602364-.04644v1.5799212c-.3674934.0686659-.7410195.0997644-1.1148084.0928152-1.97964 0-2.751678-.7435584-2.751678-2.6398872v-5.6045844h-1.421712v-1.5894036h1.4217444v-2.3139864z"/><path d="m56.2322628 8.9717004c0-3.0765204 1.8119484-5.0097636 4.637466-5.0097636 2.835 0 4.6385136 1.9332 4.6385136 5.0097636 0 3.084966-1.7940204 5.0097636-4.6385136 5.0097636-2.8434888 0-4.637466-1.9248084-4.637466-5.0097636zm7.2309456 0c0-2.110428-.9671616-3.3560136-2.5934904-3.3560136s-2.5924212 1.2550788-2.5924212 3.3560136c0 2.1188628.9660924 3.354966 2.5924212 3.354966s2.5934904-1.2361464 2.5934904-3.354966z"/><path d="m67.16304 4.0821732h1.9142568v1.66428h.04644c.2669501-1.07137252 1.2486232-1.80872832 2.3519484-1.7665992.2312972-.00080759.4619562.02431161.6876576.0748872v1.8773424c-.2919986-.08922602-.5966032-.13019261-.9018-.121284-.5900599-.02393772-1.161107.21122071-1.5632012.64372965s-.5950637 1.01915795-.5282404 1.60591035v5.7997404h-2.0070612z"/><path d="m81.41715 10.9882656c-.27 1.775034-1.9986372 2.9931984-4.2103152 2.9931984-2.8444932 0-4.610034-1.905822-4.610034-4.963356 0-3.0670272 1.775034-5.0561712 4.5256644-5.0561712 2.7052704 0 4.4064864 1.858356 4.4064864 4.8230856v.6876576h-6.9060924v.121284c-.0644788.7279542.1868849 1.4485278.6901523 1.9784303s1.2099322.8180605 1.9402417.7911757c.9739896.0912596 1.8922713-.4680313 2.2580856-1.3753152zm-6.7848382-2.918322h4.8884878c.0364235-.65411551-.201683-1.29377187-.6569531-1.76485873-.4552702-.47108686-1.0864252-.73089123-1.7414029-.71681927-.660157-.00393957-1.2945377.25598514-1.7621398.7220013-.4676021.46601617-.7296805 1.09951012-.727992 1.7596767z"/><path d="m82.8768348 5.3562276 1.0968804-4.907466h1.9511712l-1.3289076 4.907466z"/><path d="m85.83732 8.9717004c0-3.0206196 1.6632-4.9918356 4.0890204-4.9918356 1.2700901-.06318318 2.4633835.6093806 3.0670272 1.7286372h.0379728v-5.2597296h2.0165652v13.41144h-1.9522296v-1.6632h-.0369144c-.6073383 1.1427587-1.8209655 1.8309765-3.1134348 1.7655516-2.444742-.0000864-4.1080068-1.970244-4.1080068-4.9908636zm2.0534796 0c0 2.007072 1.0230516 3.289572 2.5839864 3.289572 1.5430068 0 2.5744932-1.3014864 2.5744932-3.289572 0-1.971216-1.0314864-3.2811372-2.5744932-3.2811372-1.5609132 0-2.5839864 1.2919932-2.5839864 3.2811372z"/><path d="m96.8166 11.08107c0-1.70964 1.3099212-2.7421848 3.633401-2.88144l2.676801-.148716v-.7435584c0-1.0873872-.715078-1.701216-1.932184-1.701216-.933829-.12449004-1.8143677.46539766-2.0545276 1.3763628h-1.8773424c.0559008-1.7665992 1.7001576-3.0206196 3.986723-3.0206196 2.332973 0 3.875979 1.2730068 3.875979 3.1968v6.7014972h-1.92375v-1.6084008h-.04644c-.627509 1.1108001-1.810315 1.7915402-3.086013 1.7760924-.831801.081383-1.6593032-.1921882-2.2786859-.7533306s-.9730756-1.3576989-.9739611-2.193471zm6.310192-.8827704v-.7530516l-2.406802.148716c-1.199178.0748872-1.8773424.5948424-1.8773424 1.431216 0 .85536.706644 1.4132772 1.7845274 1.4132772.630572.0427654 1.251679-.1710163 1.722349-.5928229.470669-.4218066.75098-1.0158627.777311-1.6473347z"/><path d="m107.17056 4.0821732h1.914257v1.66428h.04644c.556819-1.17367797 1.781737-1.88040814 3.07652-1.775034 2.156836 0 3.392928 1.3848084 3.392928 3.6239076v6.2648532h-2.016565v-5.87466c0-1.4681196-.679223-2.2855068-2.091442-2.2855068-.657102-.01658524-1.28919.25219566-1.733104.73696265-.443914.48476698-.656152 1.13801533-.58193 1.79112295v5.6320812h-2.007104z"/></g></g></g></svg>