<svg height="24" viewBox="0 0 25 24" width="25" xmlns="http://www.w3.org/2000/svg"><path d="m2 14.97c0-3.824 3.595-6.845 7.817-6.507 3.677.298 6.53 3.11 6.53 6.506 0 3.607-3.211 6.531-7.173 6.531h-7.174l1.809-2.196c-1.125-1.153-1.809-2.671-1.809-4.335zm11.087.594h-7.826v1.188h7.826zm-3.913-2.376h-3.914v1.188h3.913v-1.188zm6.948-10.688c3.248 0 5.878 2.392 5.878 5.344 0 1.36-.56 2.603-1.482 3.547l1.482 1.796h-4.433c-.856-3.092-3.76-5.414-7.306-5.74.223-2.766 2.762-4.947 5.861-4.947z" fill="#339af0" fill-rule="evenodd" transform="translate(.907)"/></svg>