<svg height="45" viewBox="0 0 314 45" width="314" xmlns="http://www.w3.org/2000/svg"><g fill="#92989d" fill-rule="evenodd"><g transform="translate(192.492)"><path d="m3.836 9.996v11.803c-.025.762.126 1.52.443 2.213.553 1.07 1.512 1.586 2.987 1.586 2.066 0 3.468-.922 4.242-2.766.467-1.325.68-2.727.627-4.131v-8.705h2.988v17.779h-2.84v-2.62c-.388.638-.874 1.21-1.439 1.697-1.182.941-2.657 1.437-4.168 1.402-2.508 0-4.242-.848-5.164-2.545-.516-.922-.737-2.14-.737-3.652v-12.061zm14.385 0h2.84v2.508c.728-.932 1.646-1.7 2.693-2.25.981-.457 2.053-.684 3.135-.664 2.509 0 4.205.885 5.09 2.619.48.996.738 2.36.738 4.168v11.398h-3.024v-11.215c.021-.896-.142-1.788-.48-2.618-.553-1.107-1.512-1.66-2.914-1.66-.586-.017-1.17.058-1.733.221-.849.24-1.598.743-2.14 1.439-.477.524-.819 1.157-.996 1.844-.17.874-.244 1.765-.221 2.656v9.332h-2.988v-17.779z" fill-rule="nonzero"/><path d="m35.594 10.07h3.025v17.705h-3.025zm0-6.677h3.025v3.357h-3.025z"/><path d="m53.336 10.918c1.254.996 2.029 2.656 2.287 5.053h-2.914c-.136-1.007-.559-1.955-1.217-2.73-.627-.737-1.623-1.106-3.025-1.106-1.401 0-3.283.922-4.094 2.804-.554 1.42-.818 2.938-.775 4.463-.052 1.573.331 3.13 1.107 4.5.738 1.217 1.955 1.807 3.54 1.807 1.587 0 2.25-.369 2.952-1.107.783-.885 1.306-1.97 1.512-3.135h2.914c-.332 2.36-1.18 4.094-2.508 5.201s-3.025 1.623-5.09 1.623c-2.154.073-4.216-.87-5.57-2.545-1.365-1.697-2.066-3.836-2.066-6.381 0-3.135.775-5.533 2.287-7.304 1.437-1.697 3.568-2.647 5.791-2.581 1.992 0 3.615.479 4.87 1.438z" fill-rule="nonzero"/><path d="m59.68 22.5c.208.589.493 1.147.849 1.66.811 1.106 2.065 1.66 3.725 1.66 2.152.087 4.098-1.27 4.758-3.32h2.988c-.157.658-.405 1.292-.738 1.881-.391.712-.875 1.37-1.438 1.955-.946.9-2.12 1.524-3.394 1.807-.8.171-1.616.258-2.434.259-2.124.032-4.163-.84-5.607-2.398-.928-.985-1.588-2.191-1.918-3.504h3.21z"/><path d="m56.471 22.5c-.275-1.072-.412-2.176-.405-3.283 0-2.828.774-5.151 2.323-6.971 1.55-1.82 3.578-2.705 6.086-2.656 1.27.004 2.521.307 3.652.885 1.088.506 2.018 1.296 2.693 2.287.62.948 1.036 2.017 1.217 3.136.213 1.304.3 2.625.258 3.946h-13.02c.028.899.164 1.79.405 2.656zm12.541 0 .111-.332h2.914c.006.112-.007.224-.037.332zm.222-5.053c-.076-1.079-.364-2.132-.849-3.099-.811-1.438-2.176-2.139-4.094-2.139-1.315-.034-2.58.504-3.467 1.475-.93 1.035-1.455 2.371-1.476 3.763z"/><path d="m75.836 4.574c.664-1.033 2.029-1.55 4.02-1.55h1.255v2.73h-1.07c-.885 0-1.439.258-1.623.738s-.258 1.66-.258 3.578h2.95v2.36h-2.987v15.345h-2.95v-15.345h-2.473v-2.36h2.471v-2.804c.037-1.217.258-2.139.664-2.692zm39.467-.922c1.07.737 2.988 2.508 2.73 4.61-1.365-.996-2.287-2.914-2.73-4.61z" fill-rule="nonzero"/><path d="m114.934 5.791c1.107.664 3.21 2.36 3.099 4.463-1.439-.848-2.545-2.766-3.099-4.463z" fill-rule="nonzero"/><path d="m115.488 8.594c1.364.775 3.32 2.398 3.209 4.98-1.107-.812-2.914-3.726-3.21-4.98zm.737 2.656c1.033.922 2.84 3.135 2.103 5.791-.885-1.033-2.176-4.463-2.103-5.791zm2.435-5.348c.627 1.07 1.365 4.278.184 6.16-.774-1.476-.737-4.353-.184-6.16z" fill-rule="nonzero"/><path d="m120.172 9.184c.369 1.402.627 4.906-1.328 6.677-.295-1.033.48-5.312 1.328-6.677z" fill-rule="nonzero"/><path d="m120.947 13.463c-.074 1.734-.627 4.98-3.32 6.234.037-1.07 2.103-5.164 3.32-6.234zm-4.722.48c.812 1.18 2.214 3.91.554 6.565-.554-.7-.996-5.311-.554-6.565z" fill-rule="nonzero"/><path d="m120.615 18.037c-.517 1.77-2.582 4.869-5.46 5.238.48-1.255 3.726-4.537 5.46-5.238zm-5.054-.996c.59 1.734 1.033 4.832-1.622 6.713-.296-.848.811-5.717 1.622-6.713zm-1.622 2.988c-.148 2.139-.886 5.385-4.242 5.2 0-.885 3.135-4.61 4.242-5.2zm4.721 2.692c-1.254 1.439-3.652 3.836-7.193 2.804.517-.812 5.865-2.877 7.193-2.804zm-27.185-19.069c-1.07.737-2.987 2.508-2.73 4.61 1.366-.996 2.288-2.914 2.73-4.61z" fill-rule="nonzero"/><path d="m91.881 5.791c-1.143.664-3.246 2.36-3.135 4.463 1.438-.848 2.545-2.766 3.135-4.463z" fill-rule="nonzero"/><path d="m91.291 8.594c-1.365.775-3.32 2.398-3.209 4.98 1.107-.812 2.914-3.726 3.209-4.98zm-.738 2.656c-1.033.922-2.84 3.135-2.065 5.791.848-1.033 2.176-4.463 2.065-5.791zm-2.434-5.348c-.627 1.07-1.365 4.278-.185 6.16.775-1.476.738-4.353.185-6.16z" fill-rule="nonzero"/><path d="m86.607 9.184c-.37 1.402-.59 4.906 1.327 6.677.296-1.033-.48-5.312-1.327-6.677z" fill-rule="nonzero"/><path d="m85.832 13.463c.074 1.734.627 4.98 3.32 6.234-.037-1.07-2.103-5.164-3.32-6.234zm4.721.48c-.774 1.18-2.213 3.91-.553 6.565.553-.7.996-5.311.553-6.565z" fill-rule="nonzero"/><path d="m86.164 18.037c.516 1.77 2.619 4.869 5.459 5.238-.48-1.255-3.725-4.537-5.46-5.238zm5.053-.996c-.59 1.734-1.033 4.832 1.623 6.713.295-.848-.811-5.717-1.623-6.713zm1.623 2.988c.148 2.139.922 5.385 4.242 5.2 0-.885-3.135-4.61-4.242-5.2zm-4.721 2.692c1.254 1.439 3.651 3.836 7.192 2.804-.516-.812-5.864-2.877-7.192-2.804zm26.115 3.873c-4.537-1.66-8.189-1.328-10.845-.369-2.655-.959-6.307-1.29-10.807.37 2.693 1.18 6.713 1.253 7.45-.665.883.085 1.751.284 2.583.59-1.382.548-2.619 1.406-3.615 2.509.111.202.277.368.48.48 1.147-1.106 2.468-2.015 3.91-2.693 1.44.678 2.761 1.587 3.91 2.692.204-.12.38-.284.516-.48-1.019-1.093-2.265-1.95-3.652-2.508.843-.31 1.724-.509 2.619-.59.7 1.918 4.721 1.845 7.45.664zm-10.844-3.43c2.626.004 5.167-.938 7.155-2.656-1.623-.848-1.512-1.955-1.438-2.397.073-.443.405-.259.59-.259.996 0 2.065-.295 3.356-1.622 1.291-1.328 1.955-4.832-.332-7.009-2.287-2.176-5.496-1.18-5.237-.516-.48.037-1.55.516-1.808.996s-.737.59-1.401.627-.554.59-.554.774c0 .185-.147.296-.258.259-.11-.037-.221.442-.221.59.001.13-.093.24-.222.258-.442 0-.331.406-.295.516.01.148-.06.289-.184.37-.204.176-.325.43-.332.7 0 .516.48.848 1.217 1.402.738.553.849 1.07.849 1.475-.014.477.06.952.22 1.402.185.48.185 1.365-.847 1.401-1.033.037-3.505 1.07-3.726 1.144-.996.369-2.471.406-3.172-.221-.7-.628-.332-1.439.037-1.955.406.442 1.033.405 1.402.405.781-.05 1.558-.162 2.323-.332.164-.074.353-.074.517 0 .627.222 1.549.295 1.918-.959s-.517-.922-.627-.848c-.111.074-.259.037-.185-.074.074-.11-.074-.295-.221-.295-.369.034-.71.205-.96.48-.088.11-.243.14-.368.073-.48-.22-1.955-.774-2.287-.627-.055-.4-.18-.786-.369-1.143.074-.89.012-1.785-.184-2.656-.1-.162-.085-.37.037-.516.369-.553 1.328.037 1.88.037.373.022.723-.181.886-.517.185-.221.295-.073.406-.147.11-.074 0-.222.037-.295.037-.074.074-.037.184-.148.11-.11 0-.295.037-.369.037-.073.59-.037.332-.664s.074-.7.258-.959c.185-.258 1.513-2.065-.59-3.799-2.102-1.733-4.02-1.549-5.348-.11-1.328 1.438-.664 3.467-.517 4.02.091.53-.2 1.053-.7 1.254-.741.396-1.424.893-2.03 1.476 0 .184-.036.405-.036.627 0 5.968 4.839 10.807 10.807 10.807z" fill-rule="nonzero"/><path d="m93.025 10.918c.224-1.648.844-3.218 1.807-4.574.037-.34.15-.668.332-.959-1.408 1.643-2.283 3.676-2.508 5.828zm19.844 5.939c-.565 1.227-1.367 2.33-2.36 3.245l.184.111h.11c1.184-1.11 2.104-2.471 2.693-3.983l-.185.184z" fill-rule="nonzero"/><path d="m103.39.332c-4.882-.015-9.292 2.914-11.17 7.42-1.879 4.506-.856 9.7 2.59 13.157 3.447 3.457 8.638 4.496 13.15 2.631 4.511-1.864 7.454-6.265 7.454-11.147.01-3.195-1.253-6.263-3.509-8.526s-5.32-3.535-8.516-3.535zm9.59 5.311c-.68.442-1.382.848-2.103 1.218-.438-.848-.957-1.65-1.55-2.398.546-.326 1.064-.696 1.55-1.106.794.67 1.5 1.439 2.103 2.286zm-2.361-2.508c-.464.41-.971.769-1.512 1.07-.628-.726-1.333-1.382-2.103-1.955.273-.23.52-.49.738-.775 1.022.437 1.988.994 2.877 1.66zm-5.422.185c.419.66.789 1.35 1.106 2.065-.89.246-1.806.382-2.73.406v-2.176c.55-.042 1.095-.14 1.624-.295zm-1.623-.037v-2.287c.516.664 1.033 1.328 1.475 2.029-.476.16-.973.247-1.475.258zm.369-2.324c.902.331 1.757.777 2.545 1.328-.36.245-.744.454-1.144.627-.421-.683-.89-1.337-1.401-1.955zm-.37 5.127c.962-.006 1.917-.142 2.84-.406.327.805.598 1.63.812 2.472-1.199.264-2.423.4-3.651.405v-2.47zm1.956-2.914c.437-.175.846-.41 1.217-.7.777.55 1.484 1.193 2.102 1.917-.72.377-1.473.685-2.25.922-.304-.738-.662-1.453-1.07-2.139zm1.217-1.106c-.82-.55-1.699-1.007-2.619-1.365 1.12.067 2.225.29 3.283.664l-.664.7zm-3.504-1.033v2.25c-.502-.01-1-.098-1.476-.258.438-.703.931-1.369 1.476-1.992zm-1.77 1.88c-.4-.172-.784-.381-1.144-.626.791-.544 1.646-.99 2.545-1.328-.512.618-.98 1.272-1.402 1.955zm1.217-2.212c-.927.343-1.807.802-2.62 1.365-.248-.206-.471-.441-.663-.701 1.053-.39 2.16-.614 3.283-.664l.7 23.385c-5.606-.03-10.406-4.024-11.457-9.53-1.051-5.507 1.941-10.988 7.142-13.08.217.284.464.543.737.774-.537.39-1.042.822-1.512 1.291h.443c.408-.408.853-.778 1.328-1.107.37.29.78.526 1.217.701-.221.37-.406.738-.59 1.107l.258.184c.187-.393.396-.774.627-1.143.54.158 1.097.257 1.66.295v2.176l-.996-.074.221.332h.775v4.242h.332v-1.364c1.04-.006 2.076-.105 3.098-.295l.517-.147c.06-.18.176-.335.331-.443-.22-.811-.479-1.623-.774-2.397.79-.263 1.556-.596 2.287-.996.605.738 1.124 1.542 1.549 2.397l-1.143.48h.7l.59-.222.185.406.406.148-.332-.701c.757-.36 1.485-.78 2.176-1.254 2.4 3.595 2.62 8.22.574 12.028-2.046 3.807-6.026 6.175-10.349 6.156l-.7-23.385v.035zm-102.615 30.209h117.996v1.07h-117.996zm.701 4.684h5.57l.073 1.66h-.258c-.04-.37-.194-.719-.443-.996-.184-.184-.553-.258-1.106-.258h-.554v5.053c0 .406.037.627.185.738.242.115.506.178.774.184v.148h-2.876v-.148c.275.006.545-.07.775-.22.11-.112.147-.37.147-.812v-4.943h-.553c-.383-.039-.768.038-1.106.221-.269.279-.426.646-.443 1.033h-.259z" fill-rule="nonzero"/><path d="m9.332 37.66v3.098c-.002.175.023.35.074.517.113.258.385.409.664.368.228 0 .45-.077.627-.22.148-.08.274-.194.369-.333v-2.656c0-.22-.037-.405-.148-.48-.17-.09-.36-.14-.553-.147v-.147h1.549v3.393c-.011.168.027.334.11.48.155.094.342.12.517.074v.147l-.406.11-.405.148-.554.185h-.037v-.849c-.167.224-.366.423-.59.59-.262.18-.568.282-.885.296-.285-.002-.56-.107-.775-.295-.278-.255-.427-.62-.405-.996v-2.509c0-.258-.037-.442-.148-.516-.128-.091-.286-.13-.443-.11v-.148zm2.287-.849c-.096.1-.23.154-.369.148-.129.013-.255-.043-.332-.148-.099-.08-.153-.204-.148-.331-.006-.139.048-.274.148-.37.087-.09.206-.143.332-.147.135.01.264.062.369.148.075.108.113.237.11.369.003.12-.036.237-.11.331zm-2.693-.7c.105-.086.234-.138.37-.148.123.01.24.063.331.148.1.095.154.23.148.369-.018.257-.223.461-.48.479-.138.006-.273-.047-.369-.148-.085-.09-.137-.207-.147-.331.01-.136.062-.264.147-.37zm5.017 5.864c.205-.001.408-.052.59-.147.11-.074.147-.258.147-.517v-2.176c.008-.223-.016-.447-.073-.664-.058-.132-.188-.219-.332-.221h-.295v-.148l.553-.22c.143-.025.28-.075.406-.148l.516-.185h.037v.922c.17-.244.367-.467.59-.664.155-.16.367-.253.59-.258.15-.012.299.042.406.148.1.096.154.23.147.369.01.117-.026.234-.103.324-.076.09-.185.146-.302.155-.139-.023-.268-.087-.37-.184-.075-.086-.18-.139-.294-.148-.166.025-.314.119-.406.258-.144.152-.235.346-.258.554v2.175c-.03.221.053.443.221.59.185.123.407.175.627.148v.147h-2.397v-.147.036z"/><path d="m18.406 42.012c.205-.001.408-.052.59-.147.139-.15.206-.351.184-.554v-4.831c.01-.162-.043-.32-.147-.443l-.332-.074h-.295v-.11l.442-.111.849-.258.221-.074h.037v4.131l1.328-1.18.184-.222c.027-.03.04-.07.037-.11 0-.074-.037-.148-.11-.148h-.37v-.147h2.03v.147c-.311-.014-.619.063-.886.221-.455.297-.876.643-1.254 1.033l-.295.258.885 1.144c.315.418.66.813 1.033 1.18.215.17.468.284.738.332v.11h-2.103v-.11h.332l.074-.11c0-.037-.037-.074-.037-.111l-.074-.11-1.475-1.956v1.77c-.023.18.064.355.221.443.162.072.34.098.517.074v.148h-2.324z" fill-rule="nonzero"/><path d="m25.45 35.557c.083-.123.221-.198.37-.198.148 0 .287.075.369.198.09.087.143.207.147.332-.01.135-.062.264-.147.37-.098.098-.23.154-.37.154-.138 0-.271-.056-.368-.155-.086-.105-.137-.234-.148-.369.004-.125.057-.245.148-.332zm-.737 6.455c.222-.005.438-.068.627-.184.11-.074.148-.332.148-.701v-2.287c.013-.148 0-.298-.037-.442-.035-.134-.157-.226-.295-.222h-.11l-.296.074v-.148l.184-.073 1.18-.406.185-.074v3.541c-.018.243.033.486.148.701.177.111.38.175.59.184v.111h-2.324v-.11z"/><path d="m28.586 37.697h2.029v.147h-.37c-.127.019-.222.13-.22.258-.001.052.012.103.036.148l.074.184 1.144 2.509.885-2.509c.037-.036.037-.073.074-.184v-.184c0-.074 0-.148-.074-.185-.06-.054-.14-.08-.221-.074h-.148v-.147h1.328v.147c-.116 0-.225.055-.295.148s-.131.192-.185.295l-1.512 4.02c-.171.544-.433 1.056-.774 1.513-.187.308-.526.491-.886.48-.183.007-.364-.044-.516-.148-.159-.073-.26-.232-.258-.406.003-.126.056-.245.147-.332.109-.075.238-.113.37-.11l.368.073.369.11c.184 0 .369-.22.553-.626.155-.26.256-.549.295-.849v-.22l-1.549-3.357c-.062-.17-.163-.32-.295-.443-.087-.09-.206-.144-.332-.148v-.147z" fill-rule="nonzero"/><path d="m38.029 38.066c.346.353.533.833.516 1.327h-3.098c-.016.596.165 1.18.516 1.66.274.328.68.517 1.107.517.307-.003.605-.107.848-.295.263-.195.477-.448.627-.738l.185.074c-.162.418-.414.796-.738 1.106-.347.36-.828.56-1.328.553-.565.015-1.102-.246-1.439-.7-.312-.47-.478-1.022-.48-1.586-.02-.609.19-1.202.591-1.66.344-.47.894-.744 1.475-.738.45.01.882.18 1.218.48zm-2.324.368c-.117.205-.193.43-.221.664h2.028c-.002-.245-.065-.486-.184-.7-.139-.297-.449-.474-.775-.443-.35-.015-.68.171-.848.48z"/><path d="m43.893 41.975c.406-.073.664-.147.775-.295.153-.308.217-.653.184-.996v-4.02c.03-.249-.037-.499-.184-.7-.229-.15-.503-.215-.775-.185v-.185h1.955l2.324 4.98 2.176-4.98h1.955v.185c-.369.037-.59.073-.7.184-.111.11-.148.332-.148.7v4.39c0 .37.037.59.147.701.205.147.45.224.701.221v.148h-2.766v-.148c.406-.036.664-.11.738-.22.073-.112.147-.37.147-.812v-4.427l-2.508 5.607h-.148l-2.47-5.385v3.946c-.042.371.036.746.22 1.07.212.13.453.206.701.221v.148h-2.324z" fill-rule="nonzero"/><path d="m54.7 35.557c.093-.11.226-.176.37-.184.134.003.258.072.332.184.104.077.16.203.147.332.007.139-.047.273-.147.37-.077.103-.203.16-.332.147-.286 0-.517-.231-.517-.517-.012-.129.044-.255.148-.332zm-.774 6.455c.234 0 .464-.064.664-.184.11-.074.148-.332.148-.701v-2.287c0-.221-.037-.369-.037-.442-.05-.14-.185-.23-.332-.222h-.11l-.259.074v-.148l.184-.073 1.18-.406.185-.074v3.541c0 .369.037.59.148.701.177.111.38.175.59.184v.111h-2.36v-.11.036z"/><path d="m57.873 42.012c.22-.017.433-.08.627-.184.102-.166.154-.359.148-.553v-4.722c.007-.15-.019-.302-.074-.442-.074-.131-.22-.204-.37-.185h-.368v-.147l1.586-.48h.037v6.012c-.006.195.045.388.148.554.184.09.385.14.59.147v.111h-2.324v-.11zm3.91 0c.22-.01.435-.074.627-.184.118-.159.17-.357.147-.553v-4.722c.014-.148.001-.298-.037-.442-.092-.13-.247-.2-.405-.185h-.332v-.147c.525-.13 1.042-.29 1.549-.48h.037c.037.037.037.074.037.148v5.864c-.024.197.03.395.147.554.182.095.385.146.59.147v.111h-2.36v-.11z" fill-rule="nonzero"/><path d="m66.467 35.557c.082-.123.22-.198.37-.198.147 0 .286.075.368.198.09.087.144.207.147.332-.01.135-.061.264-.147.37-.097.098-.23.154-.369.154s-.272-.056-.369-.155c-.085-.105-.137-.234-.147-.369.003-.125.056-.245.147-.332zm-.737 6.455c.221-.005.438-.068.627-.184.11-.074.147-.332.147-.701v-2.287c.013-.148.001-.298-.037-.442-.074-.148-.147-.222-.295-.222h-.11l-.296.074v-.148l.185-.073 1.18-.406.185-.074v3.541c-.018.243.033.486.147.701.178.111.381.175.59.184v.111h-2.323v-.11z"/><path d="m73.291 41.975c.262.001.52-.076.738-.22.118-.254.169-.534.147-.812v-4.28c.029-.248-.037-.498-.184-.7-.11-.11-.332-.147-.701-.184v-.185h2.803v.185c-.26-.028-.521.037-.737.184-.148.202-.214.452-.185.7v2.03l1.512-1.328c.664-.664 1.033-1.07 1.033-1.254.005-.118-.07-.225-.184-.259-.163-.068-.341-.093-.517-.073v-.185h2.62v.148c-.266.026-.527.088-.775.184-.27.18-.518.39-.738.627l-1.881 1.845 2.287 2.47c.274.316.57.611.885.886.213.128.453.204.7.221v.148h-3.024v-.148l.553-.073c.087-.041.144-.126.148-.222-.02-.08-.058-.157-.11-.221-.074-.152-.174-.29-.296-.406l-1.88-2.065-.333.295v1.77c0 .37.074.627.185.701.204.147.45.224.7.221v.148h-2.766z" fill-rule="nonzero"/><path d="m82.291 38.287c.4-.44.965-.695 1.56-.702.594-.007 1.165.234 1.575.665.444.434.673 1.041.627 1.66.014.607-.196 1.198-.59 1.66-.39.468-.977.727-1.586.7-.59.02-1.156-.224-1.55-.663-.442-.452-.682-1.065-.663-1.697-.013-.603.212-1.186.627-1.623zm.775-.148c-.332.295-.48.812-.48 1.513-.01.562.117 1.12.369 1.623.184.431.6.718 1.07.737.359.008.69-.193.848-.516.209-.397.31-.842.295-1.291.005-.55-.122-1.094-.369-1.586-.184-.432-.6-.719-1.07-.738-.244.008-.478.099-.663.258zm4.647 3.873.48-.11c.168-.147.251-.37.22-.59v-2.472c.023-.168-.016-.338-.11-.48-.08-.074-.186-.114-.295-.11h-.295v-.148l.369-.147.59-.221.48-.148c.027.03.04.07.037.11v.665c.237-.249.51-.46.811-.627.22-.102.459-.153.7-.148.307-.015.605.106.812.332.115.142.203.305.258.48.189-.196.4-.37.628-.517.264-.202.59-.306.922-.295.449-.061.88.2 1.032.627.124.368.174.756.148 1.144v1.991c-.003.172.049.34.148.48.172.086.36.136.553.147v.111h-2.176v-.11c.198-.008.39-.072.553-.185.11-.074.147-.258.147-.516v-2.103c.013-.227-.025-.453-.11-.664-.11-.295-.332-.406-.701-.406-.22.01-.436.074-.627.185l-.443.443v2.47c0 .207.05.41.148.591.147.168.369.252.59.221v.111h-2.213v-.11c.215-.009.422-.086.59-.222.1-.258.138-.536.11-.811v-1.365c.02-.336-.018-.673-.11-.996-.072-.302-.354-.506-.664-.48-.206-.003-.41.048-.59.148-.185.117-.348.267-.48.443v2.618c-.021.18.018.362.111.517.074.11.258.147.553.147v.111h-2.176v-.11zm9.664-6.455c.085-.118.223-.187.369-.184.13.017.249.083.332.184.104.077.16.203.147.332.007.139-.047.273-.147.37-.085.094-.205.147-.332.147-.14.012-.276-.043-.369-.148-.1-.096-.154-.23-.147-.369-.013-.129.043-.255.147-.332zm-.775 6.455c.232-.013.459-.076.664-.184.1-.22.138-.462.111-.701v-2.287c.013-.148 0-.298-.037-.442-.034-.134-.157-.226-.295-.222h-.11l-.296.074v-.148l.222-.073 1.18-.406.184-.074v3.541c-.023.24.015.48.111.701.192.11.406.173.627.184v.111h-2.36v-.11.036z"/><path d="m102.873 37.697v.332h-.996v2.766c-.01.198.002.396.037.59.054.215.259.357.48.332.107-.002.211-.041.295-.11.117-.062.218-.15.295-.259l.11.111-.11.148c-.123.205-.302.372-.517.48-.167.1-.358.15-.553.147-.341.007-.65-.199-.775-.517-.084-.249-.121-.512-.11-.774v-2.914h-.554v-.074l.148-.11.48-.443.7-.922h.074v1.29z" fill-rule="nonzero"/><path d="m107.705 38.066c.363.342.553.83.516 1.327h-3.061c-.016.596.165 1.18.516 1.66.482.596 1.353.694 1.955.222.263-.195.477-.448.627-.738l.185.074c-.163.427-.43.807-.775 1.106-.364.378-.875.579-1.398.55-.524-.028-1.01-.283-1.331-.697-.328-.463-.496-1.02-.48-1.586-.021-.609.19-1.202.59-1.66.298-.416.76-.684 1.27-.733.508-.05 1.014.124 1.386.475zm-2.287.368c-.117.205-.192.43-.221.664h2.028c-.02-.242-.082-.48-.184-.7-.139-.297-.449-.474-.775-.443-.35-.015-.68.171-.848.48z"/><path d="m110.36 40.61h.148c.052.297.152.584.295.849.198.36.585.576.996.553.208.013.411-.069.553-.221.152-.128.234-.319.222-.516-.002-.131-.04-.26-.11-.37-.105-.166-.26-.296-.444-.368l-.516-.332c-.33-.155-.63-.367-.885-.627-.189-.214-.294-.49-.295-.775-.01-.342.14-.668.406-.885.434-.322.995-.418 1.512-.258l.369.11h.11l.074-.073h.11v1.364h-.147c-.046-.258-.133-.507-.258-.737-.18-.315-.523-.5-.885-.48-.19-.007-.375.06-.517.185-.114.148-.179.329-.184.516 0 .295.221.553.664.775l.627.332c.7.405 1.033.811 1.033 1.328 0 .358-.163.697-.443.922-.302.27-.703.403-1.106.368l-.664-.11-.37-.11h-.11c-.037.036-.074.036-.074.073h-.11v-1.55.038z" fill-rule="nonzero"/><path d="m115.82 35.557c.085-.118.223-.187.369-.184.13.017.248.083.331.184.105.077.16.203.148.332.006.139-.047.273-.148.37-.084.094-.205.147-.331.147-.14.012-.277-.043-.37-.148-.1-.096-.153-.23-.147-.369-.012-.129.044-.255.148-.332zm-.775 6.455c.232-.013.458-.076.664-.184.1-.22.138-.462.11-.701v-2.287c.014-.148.002-.298-.036-.442-.035-.134-.157-.226-.295-.222h-.111l-.295.074v-.148l.221-.073 1.18-.406.185-.074v3.541c-.024.24.014.48.11.701.192.11.407.173.628.184v.111h-2.36v-.11.036z"/></g><path d="m17.404 0c9.596 0 17.404 7.805 17.404 17.404 0 9.598-7.808 17.404-17.404 17.404-9.597 0-17.404-7.806-17.404-17.404 0-9.599 7.807-17.404 17.404-17.404zm0 3.344c-7.764 0-14.06 6.296-14.06 14.06 0 7.768 6.296 14.06 14.06 14.06 7.766 0 14.064-6.292 14.064-14.06 0-7.764-6.298-14.06-14.064-14.06zm.192 4.887 2.719 2.72 2.718 2.719c3.003 3.003 3.004 7.873 0 10.876-3.001 3.005-7.87 3.005-10.872 0-3.003-3.003-3.003-7.874 0-10.877l.043-.043 2.676-2.676 2.716-2.72zm43.43 5.432c1.103 0 1.997.874 1.997 1.956v8.965c0 1.082-.894 1.957-1.996 1.957-1.104 0-1.997-.875-1.997-1.957v-8.965c0-1.082.893-1.956 1.997-1.956zm-11.568-4.907c2.021 0 3.672.532 4.687 1.55.813.816 1.148 1.83 1.148 3.049v.05c0 2.007-1.061 3.126-2.324 3.838 2.045.787 3.309 1.98 3.309 4.37v.05c0 3.252-2.628 4.878-6.617 4.878h-6.466c-1.086 0-1.944-.864-1.944-1.956v-13.873c0-1.092.858-1.956 1.944-1.956zm22.447-.006c2.043 0 3.82.544 5.333 1.532.408.247.816.766.816 1.507 0 .988-.769 1.754-1.729 1.754-.36 0-.648-.1-.936-.272-1.225-.741-2.379-1.16-3.532-1.16-1.418 0-2.161.666-2.161 1.506v.05c0 1.136.72 1.506 3.626 2.272 3.41.914 5.333 2.175 5.333 5.188v.05c0 3.433-2.546 5.36-6.173 5.36-2.21 0-4.445-.691-6.318-2.075-.408-.296-.697-.84-.697-1.433 0-.987.768-1.754 1.73-1.754.48 0 .817.173 1.057.347 1.273.962 2.667 1.556 4.3 1.556 1.513 0 2.426-.618 2.426-1.631v-.05c0-.962-.576-1.457-3.387-2.197-3.386-.89-5.573-1.854-5.573-5.288v-.049c0-3.138 2.45-5.213 5.885-5.213zm22.825.007c1.102 0 2.012.871 2.012 1.974v7.698c0 5.438-3.05 8.104-7.87 8.104-4.819 0-7.767-2.692-7.767-7.976v-7.826c0-1.103.907-1.974 2.01-1.974 1.101 0 1.972.871 1.972 1.974v7.723c0 2.924 1.426 4.437 3.836 4.437s3.834-1.46 3.834-4.308v-7.852c0-1.103.871-1.974 1.973-1.974zm-45.314 10.422h-4.176v3.99h4.302c1.712 0 2.745-.622 2.745-1.97v-.052c0-1.217-.881-1.968-2.871-1.968zm-.619-7.05h-3.557v3.673h3.302c1.73 0 2.822-.546 2.822-1.836v-.05c0-1.142-.915-1.788-2.567-1.788zm12.228-3.374c1.128 0 1.996.685 1.996 1.8v.05c0 1.116-.868 1.825-1.996 1.825-1.125 0-1.994-.71-1.994-1.824v-.05c0-1.116.869-1.8 1.994-1.8z" transform="translate(.083 5)"/><path d="m147 0h1.475v44.262h-1.475z"/></g></svg>