<svg height="44" viewBox="0 0 54 44" width="54" xmlns="http://www.w3.org/2000/svg"><g fill="#339af0" fill-rule="evenodd"><path d="m15.814 37.556c8.734 8.592 22.898 8.592 31.633 0 8.737-8.591 8.737-22.522 0-31.111-8.735-8.595-22.896-8.592-31.63.002-.019.015-.034.036-.052.05l-7.853 7.727-7.912 7.78 7.907 7.772 7.782 7.656c.042.04.084.084.125.124" fill-rule="nonzero" opacity=".2"/><path d="m12 10.828-4.243 4.243c-.39.39-1.024.39-1.414 0s-.39-1.024 0-1.414l5.657-5.657 5.657 5.657c.39.39.39 1.024 0 1.414s-1.024.39-1.414 0z" transform="matrix(0 -1 1 0 20.111 33.889)"/></g></svg>