<svg fill="none" height="44" viewBox="0 0 54 44" width="54" xmlns="http://www.w3.org/2000/svg"><path d="m47.4472 37.556c8.737-8.591 8.737-22.522 0-31.111-8.735-8.595-22.896-8.592-31.63.002-.019.015-.034.036-.052.05l-7.85295 7.727-7.91200204 7.78 7.90700204 7.772 7.78195 7.656c.042.04.084.084.125.124 8.734 8.592 22.898 8.592 31.633 0z" fill="#339af0"/><path clip-rule="evenodd" d="m30.9393 22.1111 4.243-4.243c.39-.39.39-1.024 0-1.414s-1.024-.39-1.414 0l-5.657 5.657 5.657 5.657c.39.39 1.024.39 1.414 0s.39-1.024 0-1.414z" fill="#fff" fill-rule="evenodd"/></svg>