<svg height="48" viewBox="0 0 133 48" width="133" xmlns="http://www.w3.org/2000/svg"><path d="m23.868 0c13.162 0 23.869 10.704 23.869 23.868 0 13.163-10.708 23.868-23.869 23.868-13.16 0-23.868-10.705-23.868-23.868 0-13.164 10.707-23.868 23.868-23.868zm0 4.587c-10.647 0-19.281 8.634-19.281 19.281 0 10.653 8.634 19.284 19.281 19.284 10.65 0 19.288-8.63 19.288-19.284 0-10.647-8.638-19.281-19.288-19.281zm.263 6.701 3.73 3.731 3.727 3.728c4.12 4.12 4.12 10.798 0 14.917-4.116 4.12-10.793 4.12-14.91 0-4.119-4.12-4.119-10.8 0-14.918l.059-.059 3.67-3.67zm59.563 7.45c1.51 0 2.737 1.2 2.737 2.682v12.295c0 1.484-1.226 2.684-2.737 2.684-1.514 0-2.738-1.2-2.738-2.684v-12.295c0-1.483 1.224-2.682 2.738-2.682zm-15.867-6.73c2.772 0 5.036.73 6.428 2.127 1.114 1.118 1.574 2.508 1.574 4.18v.07c0 2.752-1.455 4.286-3.188 5.262 2.806 1.08 4.539 2.717 4.539 5.993v.07c0 4.46-3.604 6.689-9.075 6.689h-8.867c-1.49 0-2.667-1.185-2.667-2.683v-19.025c0-1.498 1.178-2.683 2.667-2.683zm30.785-.008c2.8 0 5.238.746 7.314 2.1.559.34 1.118 1.052 1.118 2.068 0 1.354-1.054 2.405-2.37 2.405-.495 0-.89-.136-1.285-.372-1.68-1.017-3.262-1.592-4.843-1.592-1.945 0-2.965.913-2.965 2.066v.067c0 1.559.989 2.067 4.974 3.117 4.677 1.254 7.314 2.983 7.314 7.115v.068c0 4.71-3.492 7.352-8.466 7.352-3.032 0-6.096-.949-8.666-2.846-.559-.407-.955-1.152-.955-1.966 0-1.353 1.053-2.404 2.372-2.404.66 0 1.12.237 1.45.474 1.746 1.32 3.657 2.135 5.897 2.135 2.076 0 3.327-.848 3.327-2.237v-.067c0-1.321-.79-2-4.645-3.015-4.644-1.22-7.643-2.542-7.643-7.251v-.068c0-4.303 3.36-7.149 8.072-7.149zm31.301.009c1.513 0 2.76 1.196 2.76 2.708v10.557c0 7.457-4.182 11.115-10.793 11.115-6.608 0-10.652-3.693-10.652-10.94v-10.731c0-1.512 1.245-2.708 2.756-2.708s2.706 1.196 2.706 2.708v10.592c0 4.01 1.955 6.085 5.26 6.085s5.258-2.004 5.258-5.909v-10.769c0-1.512 1.195-2.708 2.705-2.708zm-62.143 14.293h-5.727v5.472h5.9c2.348 0 3.765-.853 3.765-2.701v-.07c0-1.67-1.209-2.7-3.938-2.7zm-.848-9.669h-4.879v5.039h4.53c2.37 0 3.869-.75 3.869-2.519v-.068c0-1.567-1.255-2.452-3.52-2.452zm16.77-4.626c1.546 0 2.737.939 2.737 2.469v.069c0 1.529-1.19 2.502-2.738 2.502-1.543 0-2.735-.973-2.735-2.502v-.07c0-1.53 1.192-2.468 2.735-2.468z" fill="#339af0" fill-rule="evenodd" transform="translate(.1)"/></svg>